# WaveFront *.obj file (generated by CINEMA 4D)

mtllib ./0.mtl

v -0.00245681288652 0.50811815261841 -0.42426446080208
v 0.00865620095283 2.3310718536377 0.01024454832077
v 0.28783911466599 0.50811815261841 -0.31860527396202
v 0.01298181712627 2.3310718536377 0.01181889511645
v 0.44230216741562 0.42046910524368 -0.05106738209724
v 0.01528372429311 2.3310718536377 0.01580534502864
v 0.38865783810616 0.42046910524368 0.25316551327705
v 0.0144843570888 2.3310718536377 0.02033870667219
v 0.15200625360012 0.50811815261841 0.45173966884613
v 0.01095765642822 2.3310718536377 0.02329772152007
v -0.15945301949978 0.47951889038086 0.44894099235535
v 0.00635429332033 2.3310718536377 0.02329772152007
v -0.39357101917267 0.42046910524368 0.25316551327705
v 0.00282804435119 2.3310718536377 0.02033870667219
v -0.44721534848213 0.42046910524368 -0.05106738209724
v 0.00202867714688 2.3310718536377 0.01580534502864
v -0.29528588056564 0.39186936616898 -0.32140350341797
v 0.00433058431372 2.3310718536377 0.01181889511645
v -0.00103420985397 0.6689201593399 -0.36865198612213
v 0.25266015529633 0.6689201593399 -0.27631467580795
v 0.38764849305153 0.6689201593399 -0.04250828176737
v 0.34076762199402 0.6689201593399 0.22336629033089
v 0.13395366072655 0.6689201593399 0.39690399169922
v -0.13855566084385 0.64032089710236 0.39410528540611
v -0.34283646941185 0.6689201593399 0.22336629033089
v -0.38971734046936 0.6689201593399 -0.04250828176737
v -0.25726217031479 0.64032089710236 -0.2791129052639
v 0.00678513897583 2.01016163825989 -0.06290885806084
v 0.05925660952926 2.01016163825989 -0.04381075128913
v 0.08717575669289 2.01016163825989 0.00454691005871
v 0.0774794742465 2.01016163825989 0.05953706428409
v 0.03470473736525 2.01016163825989 0.09542956203222
v -0.02366714552045 1.98156189918518 0.09263132512569
v -0.06390919536352 2.01016163825989 0.05953706428409
v -0.07360547780991 2.01016163825989 0.00454691005871
v -0.04821901395917 1.98156189918518 -0.04660899192095
v 0.1094690784812 1.66194045543671 -0.10417473316193
v 0.16518633067608 1.66194045543671 -0.00766986235976
v 0.14583577215672 1.66194045543671 0.10207153856754
v 0.06047236919403 1.66194045543671 0.17370027303696
v -0.05349529162049 1.63334119319916 0.17090204358101
v -0.13632601499557 1.66194045543671 0.10207153856754
v -0.1556761264801 1.66194045543671 -0.00766986235976
v -0.10249199718237 1.633340716362 -0.10697342455387
v 0.0047551067546 1.66194045543671 -0.14228785037994
v 0.16486568748951 1.27777075767517 -0.17077061533928
v 0.25125020742416 1.27777075767517 -0.02114800922573
v 0.22124908864498 1.27777075767517 0.14899711310863
v 0.08890004456043 1.27777075767517 0.26005092263222
v -0.08640258014202 1.24917101860046 0.25725269317627
v -0.21621850132942 1.27777075767517 0.1489966660738
v -0.24621960520744 1.27777075767517 -0.02114800922573
v -0.1623682230711 1.24917101860046 -0.17356885969639
v 0.00251507177018 1.27777075767517 -0.22986148297787
v 0.21424400806427 0.93533354997635 -0.23013199865818
v 0.32796508073807 0.93533307313919 -0.03316155448556
v 0.28847047686577 0.93533354997635 0.19082480669022
v 0.1142395362258 0.93533354997635 0.33702141046524
v -0.11573529988527 0.90673381090164 0.33422318100929
v -0.28743264079094 0.93533354997635 0.19082480669022
v -0.32692727446556 0.93533307313919 -0.03316155448556
v -0.21573977172375 0.90673381090164 -0.23293024301529
v 0.00051891140174 0.93533307313919 -0.30792173743248
v 0.00707869185135 1.98753952980042 -0.1147051602602
v 0.09025490283966 1.98753988742828 -0.0844312608242
v 0.13197872042656 1.95894014835358 -0.0105737792328
v 0.11914142221212 1.98753952980042 0.0793938934803
v 0.05133564397693 1.98753952980042 0.13628987967968
v -0.03971185162663 1.95894014835358 0.13349165022373
v -0.10498449206352 1.98753952980042 0.0793938934803
v -0.12035492062569 1.98753952980042 -0.00777554139495
v -0.07863110303879 1.95894014835358 -0.08722949773073
v 0.00484362430871 1.63820910453796 -0.20396739244461
v 0.14673902094364 1.63820910453796 -0.15232193470001
v 0.21970680356026 1.60960936546326 -0.02434909157455
v 0.19601844251156 1.63820910453796 0.12715722620487
v 0.08034455031157 1.63820910453796 0.2242193967104
v -0.07319044321775 1.60960984230042 0.22142115235329
v -0.18633164465427 1.63820910453796 0.12715722620487
v -0.21255269646645 1.63820910453796 -0.0215504039079
v -0.13958489894867 1.60960936546326 -0.15512017905712
v 0.00238726334646 1.25425851345062 -0.30305600166321
v 0.20945006608963 1.25425851345062 -0.22769099473953
v 0.31709325313568 1.22565877437592 -0.03965901210904
v 0.28136241436005 1.25425851345062 0.18014353513718
v 0.11256312578917 1.25425851345062 0.32178330421448
v -0.11032218486071 1.22565925121307 0.31898462772369
v -0.27658835053444 1.25425851345062 0.18014353513718
v -0.31485185027122 1.25425851345062 -0.03686077147722
v -0.20720912516117 1.22565925121307 -0.23048968613148
v 0.00018019638082 0.9092863202095 -0.37537661194801
v 0.25505509972572 0.90928679704666 -0.28260979056358
v 0.3881384730339 0.88068705797195 -0.05051369592547
v 0.34357261657715 0.9092863202095 0.21939654648304
v 0.13579626381397 0.90928679704666 0.39374172687531
v -0.13796946406364 0.88068705797195 0.39094305038452
v -0.34321269392967 0.90928679704666 0.21939654648304
v -0.39031168818474 0.9092863202095 -0.04771545901895
v -0.25722876191139 0.88068705797195 -0.28540802001953
v 0.30254745483398 0.64202487468719 -0.33964896202087
v 0.46181079745293 0.61342513561249 -0.06220794469118
v 0.40815249085426 0.64202487468719 0.25926646590233
v 0.16026638448238 0.64202487468719 0.4672677218914
v -0.16585925221443 0.61342513561249 0.46446949243546
v -0.41121265292168 0.64202487468719 0.25926646590233
v -0.46740368008614 0.64202439785004 -0.05940970778465
v -0.30814078450203 0.61342513561249 -0.34244763851166
v -0.0015300886007 0.64202439785004 -0.45032429695129
v 0.33754712343216 0.39728611707687 -0.38176298141479
v 0.51626622676849 0.368686825037 -0.07062343508005
v 0.45585078001022 0.39728611707687 0.28917229175568
v 0.17815640568733 0.39728611707687 0.52218562364578
v -0.18688125908375 0.368686825037 0.519386947155
v -0.46204248070717 0.39728611707687 0.28917184472084
v -0.52499061822891 0.39728611707687 -0.06782519817352
v -0.34627196192741 0.368686825037 -0.38456165790558
v -0.00309585500509 0.39728611707687 -0.50574707984924
v -0.00852929521352 0.01758478395641 -0.16847096383572
v -0.00852929521352 0.54843968153 -0.16847096383572
v 0.10435312241316 0.01758478395641 -0.12738528847694
v 0.10435312241316 0.54843968153 -0.12738528847694
v 0.16441677510738 0.01758478395641 -0.02335236780345
v 0.16441677510738 0.54843968153 -0.02335236780345
v 0.14355690777302 0.01758478395641 0.09494949132204
v 0.14355690777302 0.54843968153 0.09494949132204
v 0.05153435841203 0.01758478395641 0.17216567695141
v 0.05153435841203 0.54843968153 0.17216567695141
v -0.0685924962163 0.01758478395641 0.17216567695141
v -0.0685924962163 0.54843968153 0.17216567695141
v -0.160615041852 0.01758478395641 0.09494949132204
v -0.160615041852 0.54843968153 0.09494949132204
v -0.18147490918636 0.01758478395641 -0.02335236780345
v -0.18147490918636 0.54843968153 -0.02335236780345
v -0.12141171097755 0.01758478395641 -0.12738528847694
v -0.12141171097755 0.54843968153 -0.12738528847694
v -0.00852929521352 0.28007400035858 -0.11942458897829
v 0.07282688468695 0.28007400035858 -0.08981367200613
v 0.11611557006836 0.28007400035858 -0.01483571715653
v 0.10108158737421 0.28007400035858 0.07042652368546
v 0.03475938364863 0.28007400035858 0.1260773986578
v -0.05181797593832 0.28007400035858 0.12607695162296
v -0.11813972890377 0.28007400035858 0.07042652368546
v -0.13317370414734 0.28007400035858 -0.01483571715653
v -0.08988502621651 0.28007400035858 -0.08981367200613
# 144 vertices

vn 0.32378843426704 0.32210090756416 -0.88961344957352
vn 0.87305283546448 0.30219495296478 -0.3826969563961
vn 0.95365387201309 0.29710274934769 0.0476889424026
vn 0.61089199781418 0.31119614839554 0.72798895835876
vn -0.11637606471777 0.29650270938873 0.94791495800018
vn -0.53129953145981 0.30151039361954 0.79171478748322
vn -0.93269419670105 0.32098183035851 0.16447545588017
vn -0.38088819384575 0.3168860077858 -0.8686238527298
vn -0.78982996940613 0.3166007399559 -0.52529287338257
vn -0.76674675941467 0.43101572990417 -0.47573611140251
vn -0.33560055494308 0.43041494488716 -0.83792316913605
vn -0.88981121778488 0.42851442098618 0.15688027441502
vn -0.55107963085175 0.42298185825348 0.71930354833603
vn -0.04546968266368 0.41869607567787 0.90698736906052
vn 0.58442580699921 0.41629520058632 0.69652330875397
vn 0.90789300203323 0.39597660303116 0.1375964730978
vn 0.802301466465 0.40251016616821 -0.44079235196114
vn 0.30928468704224 0.42659848928452 -0.8499156832695
vn -0.78377455472946 0.33697932958603 -0.52167266607285
vn -0.37828424572945 0.33669018745422 -0.86228811740875
vn -0.92787909507751 0.33507525920868 0.1635999828577
vn -0.52770495414734 0.32879212498665 0.7832133769989
vn -0.11269082129002 0.32557210326195 0.93877768516541
vn 0.60778546333313 0.32537725567818 0.72438007593155
vn 0.9437113404274 0.31219536066055 0.10928400605917
vn 0.84437894821167 0.31728273630142 -0.43168953061104
vn 0.32237935066223 0.33416074514389 -0.88566821813583
vn 0.32091051340103 0.34578582644463 -0.88173043727875
vn 0.83252048492432 0.33038312196732 -0.4446984231472
vn 0.93662190437317 0.32600978016853 0.12828509509563
vn 0.60470008850098 0.33900701999664 0.72070246934891
vn -0.07350006699562 0.34090656042099 0.93721956014633
vn -0.55338978767395 0.34410291910172 0.75852024555206
vn -0.9230095744133 0.34869113564491 0.16268919408321
vn -0.3578896522522 0.3489830493927 -0.8660980463028
vn -0.79061329364777 0.35000866651535 -0.50241869688034
vn -0.79567092657089 0.35069397091866 -0.49388411641121
vn -0.34860652685165 0.3496065735817 -0.86962562799454
vn -0.92285561561584 0.34909823536873 0.16268959641457
vn -0.56635653972626 0.34457030892372 0.7486732006073
vn -0.0550951436162 0.34078985452652 0.93852370977402
vn 0.60482728481293 0.33850827813148 0.72083014249802
vn 0.93591320514679 0.32428365945816 0.13750103116035
vn 0.8290119767189 0.32928600907326 -0.45200651884079
vn 0.32088312506676 0.34610253572464 -0.88161617517471
vn 0.31138169765472 0.41329017281532 -0.85570597648621
vn 0.80774420499802 0.39101231098175 -0.44120138883591
vn 0.91292369365692 0.38491362333298 0.13569009304047
vn 0.5881125330925 0.40351286530495 0.70092868804932
vn -0.05087553709745 0.40559801459312 0.91263461112976
vn -0.55132108926773 0.40960013866425 0.7268238067627
vn -0.89600765705109 0.41498678922653 0.15797559916973
vn -0.34038397669792 0.41679221391678 -0.84286594390869
vn -0.77083122730255 0.41741639375687 -0.48123043775558
vn 0.18238094449043 -0.86280930042267 0.47148409485817
vn 0.43460512161255 -0.8567099571228 0.27778851985931
vn 0.45110276341438 -0.88892394304276 -0.07950158417225
vn 0.03378250449896 -0.81640541553497 -0.57649022340775
vn 0.33260133862495 -0.82405006885529 -0.45860424637794
vn -0.30487769842148 -0.88038283586502 -0.36328446865082
vn -0.65020561218262 -0.75820857286453 0.04850135371089
vn -0.61888593435287 -0.76610720157623 0.1733780503273
vn -0.14387832581997 -0.90717715024948 0.39538413286209
vn -0.12950210273266 -0.92551505565643 0.35588076710701
vn -0.53588443994522 -0.81957685947418 0.20278479158878
vn -0.58731549978256 -0.80931663513184 -0.00818754173815
vn -0.26910144090652 -0.90815091133118 -0.32069665193558
vn 0.1983820348978 -0.88700014352798 -0.41698354482651
vn 0.11559738218784 -0.88577783107758 -0.44948288798332
vn 0.39869293570518 -0.91438740491867 -0.07028220593929
vn 0.30328798294067 -0.90767639875412 0.29006892442703
vn 0.22956727445126 -0.90908139944077 0.34766346216202
vn 0.21369236707687 -0.93789631128311 0.2732874751091
vn 0.23219157755375 -0.93767273426056 0.25856706500053
vn 0.33560025691986 -0.94014316797256 -0.05918864533305
vn 0.12078493088484 -0.92549693584442 -0.35897970199585
vn 0.13787837326527 -0.92567890882492 -0.35228985548019
vn -0.2262844145298 -0.93598181009293 -0.2696912586689
vn -0.51291906833649 -0.85811519622803 -0.0235005877912
vn -0.46181654930115 -0.86594504117966 0.19200168550014
vn -0.11068774759769 -0.94618964195251 0.30409443378448
vn -0.1301916539669 -0.92471706867218 0.35769891738892
vn -0.50305390357971 -0.83200621604919 0.23388554155827
vn -0.56950330734253 -0.8205047249794 -0.04937528818846
vn -0.26597747206688 -0.91037368774414 -0.31697914004326
vn 0.10718965530396 -0.9037681221962 -0.4143833220005
vn 0.18387894332409 -0.90467566251755 -0.38438326120377
vn 0.3926973938942 -0.91705429553986 -0.06928299367428
vn 0.22319549322128 -0.92012673616409 0.321792781353
vn 0.27991530299187 -0.9193422794342 0.2765089571476
vn 0.24338319897652 -0.93975037336349 0.24007058143616
vn 0.1937854886055 -0.94020807743073 0.28009989857674
vn 0.33810526132584 -0.93921947479248 -0.05959577485919
vn 0.15719300508499 -0.93090754747391 -0.32969903945923
vn 0.09218996018171 -0.93030601739883 -0.35500946640968
vn -0.22819572687149 -0.93484616279602 -0.27200981974602
vn -0.49888998270035 -0.86558854579926 -0.04318879917264
vn -0.44219496846199 -0.87301480770111 0.20569097995758
vn -0.11328242719173 -0.94350975751877 0.311378210783
vn -0.28169074654579 -0.56731897592545 0.77382135391235
vn -0.69661229848862 -0.66579896211624 0.26728835701942
vn -0.46479478478432 -0.88443201780319 -0.04178246855736
vn -0.51163667440414 -0.72395408153534 -0.46272933483124
vn 0.05228216573596 -0.53588443994522 -0.84267103672028
vn 0.46348834037781 -0.73028087615967 -0.50186496973038
vn 0.29559862613678 -0.95389080047607 -0.05209461227059
vn 0.36628687381744 -0.744105219841 0.55869609117508
vn 0.2117885351181 -0.95400154590607 0.21219480037689
vn 0.33710420131683 -0.16928648948669 -0.92612248659134
vn 0.85352057218552 -0.16928532719612 -0.49279314279556
vn 0.9706027507782 -0.16928280889988 0.17109534144402
vn 0.63349515199661 -0.16928830742836 0.75500023365021
vn 0 -0.16928212344646 0.98556762933731
vn -0.63349515199661 -0.16928830742836 0.75500023365021
vn -0.9706027507782 -0.16928280889988 0.17109534144402
vn -0.33710420131683 -0.16928648948669 -0.92612248659134
vn -0.85352057218552 -0.16928532719612 -0.49279314279556
vn -0.852982878685 0.17287786304951 -0.49247688055038
vn -0.3369160592556 0.17288003861904 -0.92552691698074
vn -0.96999037265778 0.17287886142731 0.17097257077694
vn -0.63310527801514 0.17287814617157 0.75451368093491
vn 0 0.17290638387203 0.98493826389313
vn 0.63310527801514 0.17287814617157 0.75451368093491
vn 0.96999037265778 0.17287886142731 0.17097257077694
vn 0.852982878685 0.17287786304951 -0.49247688055038
vn 0.3369160592556 0.17288003861904 -0.92552691698074
vn 0 1 0
vn 0.04150044173002 -0.99913567304611 0.00237502530217
vn 0 -1 0
# 129 normals

o Cylinder
usemtl Leaves
f 64//1 2//1 4//1 65//1
f 65//2 4//2 6//2 66//2
f 66//3 6//3 8//3 67//3
f 67//4 8//4 10//4 68//4
f 68//5 10//5 12//5 69//5
f 69//6 12//6 14//6 70//6
f 70//7 14//7 16//7 71//7
f 72//8 18//8 2//8 64//8
f 71//9 16//9 18//9 72//9
f 115//10 26//10 27//10 116//10
f 116//11 27//11 19//11 117//11
f 114//12 25//12 26//12 115//12
f 113//13 24//13 25//13 114//13
f 112//14 23//14 24//14 113//14
f 111//15 22//15 23//15 112//15
f 110//16 21//16 22//16 111//16
f 109//17 20//17 21//17 110//17
f 117//18 19//18 20//18 109//18
f 80//19 35//19 36//19 81//19
f 81//20 36//20 28//20 73//20
f 79//21 34//21 35//21 80//21
f 78//22 33//22 34//22 79//22
f 77//23 32//23 33//23 78//23
f 76//24 31//24 32//24 77//24
f 75//25 30//25 31//25 76//25
f 74//26 29//26 30//26 75//26
f 73//27 28//27 29//27 74//27
f 82//28 45//28 37//28 83//28
f 83//29 37//29 38//29 84//29
f 84//30 38//30 39//30 85//30
f 85//31 39//31 40//31 86//31
f 86//32 40//32 41//32 87//32
f 87//33 41//33 42//33 88//33
f 88//34 42//34 43//34 89//34
f 90//35 44//35 45//35 82//35
f 89//36 43//36 44//36 90//36
f 98//37 52//37 53//37 99//37
f 99//38 53//38 54//38 91//38
f 97//39 51//39 52//39 98//39
f 96//40 50//40 51//40 97//40
f 95//41 49//41 50//41 96//41
f 94//42 48//42 49//42 95//42
f 93//43 47//43 48//43 94//43
f 92//44 46//44 47//44 93//44
f 91//45 54//45 46//45 92//45
f 108//46 63//46 55//46 100//46
f 100//47 55//47 56//47 101//47
f 101//48 56//48 57//48 102//48
f 102//49 57//49 58//49 103//49
f 103//50 58//50 59//50 104//50
f 104//51 59//51 60//51 105//51
f 105//52 60//52 61//52 106//52
f 107//53 62//53 63//53 108//53
f 106//54 61//54 62//54 107//54
f 35//55 71//55 72//55 36//55
f 36//56 72//56 64//56 28//56
f 34//57 70//57 71//57 35//57
f 33//58 69//58 70//58 34//58
f 32//59 68//59 69//59 33//59
f 31//60 67//60 68//60 32//60
f 30//61 66//61 67//61 31//61
f 29//62 65//62 66//62 30//62
f 28//63 64//63 65//63 29//63
f 45//64 73//64 74//64 37//64
f 37//65 74//65 75//65 38//65
f 38//66 75//66 76//66 39//66
f 39//67 76//67 77//67 40//67
f 40//68 77//68 78//68 41//68
f 41//69 78//69 79//69 42//69
f 42//70 79//70 80//70 43//70
f 44//71 81//71 73//71 45//71
f 43//72 80//72 81//72 44//72
f 52//73 89//73 90//73 53//73
f 53//74 90//74 82//74 54//74
f 51//75 88//75 89//75 52//75
f 50//76 87//76 88//76 51//76
f 49//77 86//77 87//77 50//77
f 48//78 85//78 86//78 49//78
f 47//79 84//79 85//79 48//79
f 46//80 83//80 84//80 47//80
f 54//81 82//81 83//81 46//81
f 63//82 91//82 92//82 55//82
f 55//83 92//83 93//83 56//83
f 56//84 93//84 94//84 57//84
f 57//85 94//85 95//85 58//85
f 58//86 95//86 96//86 59//86
f 59//87 96//87 97//87 60//87
f 60//88 97//88 98//88 61//88
f 62//89 99//89 91//89 63//89
f 61//90 98//90 99//90 62//90
f 26//91 106//91 107//91 27//91
f 27//92 107//92 108//92 19//92
f 25//93 105//93 106//93 26//93
f 24//94 104//94 105//94 25//94
f 23//95 103//95 104//95 24//95
f 22//96 102//96 103//96 23//96
f 21//97 101//97 102//97 22//97
f 20//98 100//98 101//98 21//98
f 19//99 108//99 100//99 20//99
f 1//100 117//100 109//100 3//100
f 3//101 109//101 110//101 5//101
f 5//102 110//102 111//102 7//102
f 7//103 111//103 112//103 9//103
f 9//104 112//104 113//104 11//104
f 11//105 113//105 114//105 13//105
f 13//106 114//106 115//106 15//106
f 17//107 116//107 117//107 1//107
f 15//108 115//108 116//108 17//108
f 4//127 2//127 18//127 16//127 14//127 12//127 10//127 8//127 6//127
f 1//128 3//128 5//128 7//128 9//128 11//128 13//128 15//128 17//128

usemtl Bark
f 136//109 119//109 121//109 137//109
f 137//110 121//110 123//110 138//110
f 138//111 123//111 125//111 139//111
f 139//112 125//112 127//112 140//112
f 140//113 127//113 129//113 141//113
f 141//114 129//114 131//114 142//114
f 142//115 131//115 133//115 143//115
f 144//116 135//116 119//116 136//116
f 143//117 133//117 135//117 144//117
f 132//118 143//118 144//118 134//118
f 134//119 144//119 136//119 118//119
f 130//120 142//120 143//120 132//120
f 128//121 141//121 142//121 130//121
f 126//122 140//122 141//122 128//122
f 124//123 139//123 140//123 126//123
f 122//124 138//124 139//124 124//124
f 120//125 137//125 138//125 122//125
f 118//126 136//126 137//126 120//126
f 121//127 119//127 135//127 133//127 131//127 129//127 127//127 125//127 123//127
f 118//129 120//129 122//129 124//129 126//129 128//129 130//129 132//129 134//129

